<svg xmlns="http://www.w3.org/2000/svg" version="1.1" xmlns:xlink="http://www.w3.org/1999/xlink" xmlns:svgjs="http://svgjs.dev/svgjs" viewBox="0 0 800 800" opacity="1"><defs><symbol id="bbburst-shape-9" viewBox="0 0 182 172"><path d="M13.5809 69.845 91 13.5967l77.419 56.2483-29.571 91.012H43.1524L13.5809 69.845Z" stroke-width="22"></path></symbol><symbol id="bbburst-shape-10" viewBox="0 0 145 145"><circle cx="72.5" cy="72.5" r="61.5" fill="none" stroke-width="22"></circle></symbol><symbol id="bbburst-shape-11" viewBox="0 0 194 167"><path d="M10.398 161 97 11l86.603 150H10.397Z" stroke-width="11"></path></symbol><symbol id="bbburst-shape-13" viewBox="0 0 159 159"><path stroke-width="22" d="M11 11h137v137H11z"></path></symbol></defs><use xlink:href="#bbburst-shape-9" width="34.89713730684155" opacity="0.2976898908777049" transform="matrix(0.8866238875941571,0.46249116958859166,-0.46249116958859166,0.8866238875941571,758.7128937831405,-216.16798285460166)" fill="none" stroke="#2c2891"></use><use xlink:href="#bbburst-shape-10" width="31.251315264430737" opacity="0.8021665381907246" transform="matrix(0.999655980245067,-0.026228251185970122,0.026228251185970122,0.999655980245067,416.30679436700854,-77.7222388917832)" fill="none" stroke="#ffa6d5"></use><use xlink:href="#bbburst-shape-11" width="33.82877712157357" opacity="0.5691517180409038" transform="matrix(0.8234559642363837,0.5673801855577332,-0.5673801855577332,0.8234559642363837,806.6532059256845,46.75119372748537)" fill="none" stroke="#ffbd9b"></use><use xlink:href="#bbburst-shape-13" width="32.10646004441805" opacity="0.6569694238075926" transform="matrix(0.950992573875221,-0.3092137196732744,0.3092137196732744,0.950992573875221,296.2391852343212,-125.73201392671777)" fill="none" stroke="#ffbd9b"></use><use xlink:href="#bbburst-shape-13" width="34.25858029982137" opacity="0.7336354555433817" transform="matrix(0.9478629162958747,-0.31867835180802545,0.31867835180802545,0.9478629162958747,136.4310545279247,25.513972146527692)" fill="none" stroke="#ffa6d5"></use><use xlink:href="#bbburst-shape-11" width="39.71863067527562" opacity="0.13495207726287983" transform="matrix(0.9087336042586031,0.41737661229538076,-0.41737661229538076,0.9087336042586031,190.79572332798932,-124.35879115024352)" fill="none" stroke="#ffa6d5"></use><use xlink:href="#bbburst-shape-11" width="36.98256184243359" opacity="0.4078254870876865" transform="matrix(0.9308159081434447,0.3654883652691207,-0.3654883652691207,0.9308159081434447,459.45479872749763,-236.72928826244953)" fill="none" stroke="#2c2891"></use><use xlink:href="#bbburst-shape-13" width="42.87058073447656" opacity="0.14128199508025252" transform="matrix(0.904867025964606,0.4256943332039658,-0.4256943332039658,0.904867025964606,196.6749010907323,183.39643439852756)" fill="none" stroke="#ffbd9b"></use><use xlink:href="#bbburst-shape-11" width="45.08523488524895" opacity="0.33337499624580347" transform="matrix(0.9384709337242038,0.3453582293138839,-0.3453582293138839,0.9384709337242038,738.2412487237641,219.0725639999755)" fill="none" stroke="#ff5c58"></use><use xlink:href="#bbburst-shape-13" width="56.59947504222605" opacity="0.23481566549015898" transform="matrix(0.7369134858916495,-0.6759870666743688,0.6759870666743688,0.7369134858916495,-147.7954994005239,354.0368662882717)" fill="none" stroke="#ffa6d5"></use><use xlink:href="#bbburst-shape-11" width="54.30335604946331" opacity="0.12306879009992033" transform="matrix(0.7280667947159496,0.6855061943061078,-0.6855061943061078,0.7280667947159496,991.7749893849541,295.1963106219452)" fill="none" stroke="#ffa6d5"></use><use xlink:href="#bbburst-shape-9" width="45.63821653094758" opacity="0.6287772462951291" transform="matrix(0.9566916218585991,-0.29110331613632157,0.29110331613632157,0.9566916218585991,118.60363629388189,-62.62351884786017)" fill="none" stroke="#ff5c58"></use><use xlink:href="#bbburst-shape-13" width="36.94765370512039" opacity="0.20070480656423906" transform="matrix(0.9913646913589144,0.13113370553311024,-0.13113370553311024,0.9913646913589144,415.59366701254424,360.2359887038)" fill="none" stroke="#ffa6d5"></use><use xlink:href="#bbburst-shape-13" width="43.42347517978388" opacity="0.16030458593305397" transform="matrix(0.9294194175917552,-0.3690251295012342,0.3690251295012342,0.9294194175917552,23.9374408227373,-279.03748928856476)" fill="none" stroke="#ffa6d5"></use><use xlink:href="#bbburst-shape-9" width="37.881281064963176" opacity="0.4228327991326296" transform="matrix(0.8753889764180061,-0.48341921762155426,0.48341921762155426,0.8753889764180061,195.12230112512768,318.4504467160934)" fill="none" stroke="#ffa6d5"></use><use xlink:href="#bbburst-shape-10" width="33.55228974647197" opacity="0.6273296299536469" transform="matrix(0.98699830175539,-0.16073068260906495,0.16073068260906495,0.98699830175539,258.14654396958383,-148.3157604460797)" fill="none" stroke="#ffa6d5"></use><use xlink:href="#bbburst-shape-13" width="36.50814968394235" opacity="0.6991377357422766" transform="matrix(0.8479358478703743,-0.5300988567204701,0.5300988567204701,0.8479358478703743,79.67637791558471,169.0769359099558)" fill="none" stroke="#00a19d"></use><use xlink:href="#bbburst-shape-13" width="44.23504055880245" opacity="0.382461511397826" transform="matrix(0.9658760371290674,0.25900478933766535,-0.25900478933766535,0.9658760371290674,759.0213380300191,32.735627758337785)" fill="none" stroke="#2c2891"></use><use xlink:href="#bbburst-shape-10" width="42.56168349863947" opacity="0.3756859631361886" transform="matrix(0.7427818084592972,0.6695335578012023,-0.6695335578012023,0.7427818084592972,388.2513674899929,185.39289220223128)" fill="none" stroke="#2c2891"></use><use xlink:href="#bbburst-shape-10" width="55.41489043489653" opacity="-0.04234127138149146" transform="matrix(0.9127942854792896,0.40841962782945807,-0.40841962782945807,0.9127942854792896,867.0774563706148,357.885807542051)" fill="none" stroke="#ff5c58"></use><use xlink:href="#bbburst-shape-13" width="25.681401437990605" opacity="0.9419718144453639" transform="matrix(0.8807883176389305,0.47351023168542244,-0.47351023168542244,0.8807883176389305,599.4148833946526,26.528039906447475)" fill="none" stroke="#2c2891"></use><use xlink:href="#bbburst-shape-9" width="40.528592335493556" opacity="0.5259932727177241" transform="matrix(0.9049284351175808,0.42556377584992644,-0.42556377584992644,0.9049284351175808,651.893416320312,217.62594137621193)" fill="none" stroke="#2c2891"></use><use xlink:href="#bbburst-shape-11" width="33.69704225983117" opacity="0.28527506447838114" transform="matrix(0.7637475399008526,-0.6455150620205508,0.6455150620205508,0.7637475399008526,233.03167287877233,409.2606638474251)" fill="none" stroke="#00a19d"></use><use xlink:href="#bbburst-shape-13" width="48.22750823699285" opacity="0.32078183422807016" transform="matrix(0.8915631846846147,0.45289633219427555,-0.45289633219427555,0.8915631846846147,442.6061868483389,314.79977004091097)" fill="none" stroke="#ffbd9b"></use><use xlink:href="#bbburst-shape-10" width="48.125413409403606" opacity="-0.05357154426244182" transform="matrix(0.79317474211796,-0.608994112012676,0.608994112012676,0.79317474211796,-198.10632960719823,-237.68182517752172)" fill="none" stroke="#ff5c58"></use><use xlink:href="#bbburst-shape-13" width="51.43121442364076" opacity="0.1260243900920308" transform="matrix(0.9771777402565145,0.21242331309715504,-0.21242331309715504,0.9771777402565145,786.1447460224902,-215.8829312456819)" fill="none" stroke="#ffa6d5"></use><use xlink:href="#bbburst-shape-11" width="39.30626265747871" opacity="0.8170710171664437" transform="matrix(0.7590571768205178,0.6510239644723267,-0.6510239644723267,0.7590571768205178,599.5956456559028,15.084594672674768)" fill="none" stroke="#ffa6d5"></use><use xlink:href="#bbburst-shape-11" width="30.212806183676765" opacity="0.888222938043024" transform="matrix(0.9997618770498105,-0.02182175973288089,0.02182175973288089,0.9997618770498105,328.9538218975465,17.403276169250148)" fill="none" stroke="#2c2891"></use><use xlink:href="#bbburst-shape-11" width="48.858864484858884" opacity="0.1975995476027108" transform="matrix(0.9982931063041461,0.058402687486268215,-0.058402687486268215,0.9982931063041461,750.0881865752796,-85.77092410622481)" fill="none" stroke="#2c2891"></use><use xlink:href="#bbburst-shape-9" width="45.276270187104586" opacity="0.12580299542729956" transform="matrix(0.7963149785303355,0.6048821827167927,-0.6048821827167927,0.7963149785303355,801.1395090708704,-283.7676125060328)" fill="none" stroke="#ffbd9b"></use><use xlink:href="#bbburst-shape-11" width="35.750659526613916" opacity="0.6325456433064264" transform="matrix(0.8245303883634012,-0.5658176726343025,0.5658176726343025,0.8245303883634012,296.3435638061428,-11.669574372140175)" fill="none" stroke="#2c2891"></use><use xlink:href="#bbburst-shape-9" width="54.03646882488155" opacity="0.12078723091955701" transform="matrix(0.9783420905672602,0.2069945743841682,-0.2069945743841682,0.9783420905672602,652.1127215354762,346.58594876615626)" fill="none" stroke="#2c2891"></use><use xlink:href="#bbburst-shape-9" width="29.00772751654968" opacity="0.7020596578817312" transform="matrix(0.9544870920606732,0.29825222730025,-0.29825222730025,0.9544870920606732,559.7357063719915,136.31318056706255)" fill="none" stroke="#ff5c58"></use><use xlink:href="#bbburst-shape-11" width="35.402575541366005" opacity="0.17244061431574387" transform="matrix(0.7749458170308159,-0.6320276739719877,0.6320276739719877,0.7749458170308159,22.329242081638597,-254.66417651131871)" fill="none" stroke="#ffa6d5"></use><use xlink:href="#bbburst-shape-11" width="30.511855446339112" opacity="0.586578516883332" transform="matrix(0.9995027709894899,0.03153110820017794,-0.03153110820017794,0.9995027709894899,227.23204529104882,74.56866745551412)" fill="none" stroke="#00a19d"></use><use xlink:href="#bbburst-shape-10" width="32.671262094297106" opacity="0.7703532500669781" transform="matrix(0.9730217695243848,-0.23071332001346384,0.23071332001346384,0.9730217695243848,392.86952892658684,-7.080279784994104)" fill="none" stroke="#ffa6d5"></use><use xlink:href="#bbburst-shape-11" width="54.79620490443399" opacity="-0.04586058749247024" transform="matrix(0.9665577575408133,0.2564490228830564,-0.2564490228830564,0.9665577575408133,134.9694545519311,329.71651137314495)" fill="none" stroke="#2c2891"></use><use xlink:href="#bbburst-shape-11" width="45.526325683975855" opacity="0.2016412656698413" transform="matrix(0.8098320409863698,0.5866617981357322,-0.5866617981357322,0.8098320409863698,967.5176049139603,139.09976426469422)" fill="none" stroke="#ffbd9b"></use><use xlink:href="#bbburst-shape-11" width="47.67328771039646" opacity="0.4454541511435315" transform="matrix(0.9643733982720315,-0.26454479527152625,0.26454479527152625,0.9643733982720315,323.52661431092406,-223.99774281682187)" fill="none" stroke="#00a19d"></use><use xlink:href="#bbburst-shape-11" width="26.606265311270906" opacity="0.8790170129106941" transform="matrix(0.9860074271422162,0.16670139057724487,-0.16670139057724487,0.9860074271422162,481.70359415593805,49.68163698187067)" fill="none" stroke="#ffa6d5"></use><use xlink:href="#bbburst-shape-13" width="47.101094257921424" opacity="0.4386311156213458" transform="matrix(0.9704409896548176,-0.2413385290370729,0.2413385290370729,0.9704409896548176,111.5084081192809,-170.16116275134547)" fill="none" stroke="#ffbd9b"></use><use xlink:href="#bbburst-shape-11" width="33.85770262950584" opacity="0.5040423305259394" transform="matrix(0.8479415088626807,0.5300898013994236,-0.5300898013994236,0.8479415088626807,374.8494712218786,44.226427211505495)" fill="none" stroke="#00a19d"></use><use xlink:href="#bbburst-shape-13" width="45.15457390143178" opacity="0.38680384995733397" transform="matrix(0.8680090915387978,0.49654830279237777,-0.49654830279237777,0.8680090915387978,322.68599625130736,-60.56018922357049)" fill="none" stroke="#2c2891"></use><use xlink:href="#bbburst-shape-11" width="53.15368998042928" opacity="0.23191356269387986" transform="matrix(0.9765410829030375,-0.2153311714605266,0.2153311714605266,0.9765410829030375,-57.85232103106335,10.726237521513042)" fill="none" stroke="#2c2891"></use><use xlink:href="#bbburst-shape-9" width="32.99057353755579" opacity="0.5281809813217211" transform="matrix(0.7177116007934397,0.6963404756916822,-0.6963404756916822,0.7177116007934397,854.1538632787726,201.25566361102557)" fill="none" stroke="#ffa6d5"></use><use xlink:href="#bbburst-shape-11" width="31.292651446105594" opacity="0.5822135883976841" transform="matrix(0.9961206959807506,0.0879974945031104,-0.0879974945031104,0.9961206959807506,377.3752506463844,182.96272090072716)" fill="none" stroke="#00a19d"></use><use xlink:href="#bbburst-shape-10" width="43.72230033387681" opacity="0.22557256235031664" transform="matrix(0.7084000813039917,0.7058111112815509,-0.7058111112815509,0.7084000813039917,697.014769875211,-245.97322596743896)" fill="none" stroke="#00a19d"></use><use xlink:href="#bbburst-shape-11" width="33.02208004418141" opacity="0.7768812187469798" transform="matrix(0.7535267081033129,-0.6574172953117255,0.6574172953117255,0.7535267081033129,103.29962226537685,207.30345800553528)" fill="none" stroke="#ffa6d5"></use><use xlink:href="#bbburst-shape-11" width="47.571531149259016" opacity="-0.04819545913481904" transform="matrix(0.8347892716926563,0.5505695885779058,-0.5505695885779058,0.8347892716926563,928.2572184738074,-286.93718173425754)" fill="none" stroke="#2c2891"></use><use xlink:href="#bbburst-shape-13" width="28.892533263792085" opacity="0.7304821062115372" transform="matrix(0.8113254909338878,-0.5845946867367903,0.5845946867367903,0.8113254909338878,263.3429491906459,137.3009223270882)" fill="none" stroke="#2c2891"></use><use xlink:href="#bbburst-shape-13" width="42.405332959437345" opacity="0.3944139021458468" transform="matrix(0.7591447654381236,-0.6509218271865649,0.6509218271865649,0.7591447654381236,368.61641283604365,-9.016331118952849)" fill="none" stroke="#00a19d"></use><use xlink:href="#bbburst-shape-13" width="41.68197577326761" opacity="0.5037805008625642" transform="matrix(0.9654433125532852,-0.2606131428883427,0.2606131428883427,0.9654433125532852,416.854791432181,-153.71702084729247)" fill="none" stroke="#ffa6d5"></use><use xlink:href="#bbburst-shape-13" width="48.49813577097845" opacity="0.18952975912503212" transform="matrix(0.9941770987002214,0.10775850973361828,-0.10775850973361828,0.9941770987002214,131.73065331947348,-224.9913247043778)" fill="none" stroke="#ff5c58"></use><use xlink:href="#bbburst-shape-9" width="48.20364547700343" opacity="0.47376682382239377" transform="matrix(0.7829618826927299,0.622069682793058,-0.622069682793058,0.7829618826927299,471.8939888429019,247.71746592223428)" fill="none" stroke="#2c2891"></use><use xlink:href="#bbburst-shape-10" width="42.20315283813205" opacity="0.10031145778964257" transform="matrix(0.9845549708951016,-0.17507572443301686,0.17507572443301686,0.9845549708951016,106.42695278302384,360.29643002620554)" fill="none" stroke="#ff5c58"></use></svg>