<svg xmlns="http://www.w3.org/2000/svg" version="1.1" xmlns:xlink="http://www.w3.org/1999/xlink" xmlns:svgjs="http://svgjs.dev/svgjs" viewBox="0 0 2400 800" opacity="1"><defs><linearGradient x1="50%" y1="0%" x2="50%" y2="100%" id="sssurf-grad"><stop stop-color="hsla(0, 72%, 64%, 1.00)" stop-opacity="1" offset="0%"></stop><stop stop-color="hsla(341, 100%, 85%, 0.13)" stop-opacity="1" offset="100%"></stop></linearGradient></defs><g fill="url(#sssurf-grad)" transform="matrix(1,0,0,1,0,-98.70681762695312)"><path d="M 0 332.1445156963946 Q 600 603.734924749939 800 338.82925006154153 Q 1400 508.1028066602328 1600 313.72490023547874 Q 2200 469.01817979130266 2400 309.41362658714 L 2400 800 L 0 800 L 0 341.6798275469149 Z" transform="matrix(1,0,0,1,0,36)" opacity="0.05"></path><path d="M 0 332.1445156963946 Q 600 603.734924749939 800 338.82925006154153 Q 1400 508.1028066602328 1600 313.72490023547874 Q 2200 469.01817979130266 2400 309.41362658714 L 2400 800 L 0 800 L 0 341.6798275469149 Z" transform="matrix(1,0,0,1,0,72)" opacity="0.21"></path><path d="M 0 332.1445156963946 Q 600 603.734924749939 800 338.82925006154153 Q 1400 508.1028066602328 1600 313.72490023547874 Q 2200 469.01817979130266 2400 309.41362658714 L 2400 800 L 0 800 L 0 341.6798275469149 Z" transform="matrix(1,0,0,1,0,108)" opacity="0.37"></path><path d="M 0 332.1445156963946 Q 600 603.734924749939 800 338.82925006154153 Q 1400 508.1028066602328 1600 313.72490023547874 Q 2200 469.01817979130266 2400 309.41362658714 L 2400 800 L 0 800 L 0 341.6798275469149 Z" transform="matrix(1,0,0,1,0,144)" opacity="0.53"></path><path d="M 0 332.1445156963946 Q 600 603.734924749939 800 338.82925006154153 Q 1400 508.1028066602328 1600 313.72490023547874 Q 2200 469.01817979130266 2400 309.41362658714 L 2400 800 L 0 800 L 0 341.6798275469149 Z" transform="matrix(1,0,0,1,0,180)" opacity="0.68"></path><path d="M 0 332.1445156963946 Q 600 603.734924749939 800 338.82925006154153 Q 1400 508.1028066602328 1600 313.72490023547874 Q 2200 469.01817979130266 2400 309.41362658714 L 2400 800 L 0 800 L 0 341.6798275469149 Z" transform="matrix(1,0,0,1,0,216)" opacity="0.84"></path><path d="M 0 332.1445156963946 Q 600 603.734924749939 800 338.82925006154153 Q 1400 508.1028066602328 1600 313.72490023547874 Q 2200 469.01817979130266 2400 309.41362658714 L 2400 800 L 0 800 L 0 341.6798275469149 Z" transform="matrix(1,0,0,1,0,252)" opacity="1.00"></path></g></svg>