<svg xmlns="http://www.w3.org/2000/svg" version="1.1" xmlns:xlink="http://www.w3.org/1999/xlink" xmlns:svgjs="http://svgjs.dev/svgjs" viewBox="0 0 2400 800" opacity="1"><defs><linearGradient x1="50%" y1="0%" x2="50%" y2="100%" id="sssurf-grad"><stop stop-color="#083f6eff" stop-opacity="1" offset="0%"></stop><stop stop-color="hsl(208, 74%, 93%)" stop-opacity="1" offset="100%"></stop></linearGradient></defs><g fill="url(#sssurf-grad)" transform="matrix(1,0,0,1,10.593017578125,203.50611877441406)"><path d="M-10,10C19.86111111111111,22.291666666666668,75.69444444444446,74.83333333333333,133.33333333333334,69C190.97222222222223,63.166666666666664,211.11111111111114,-16.958333333333332,266.6666666666667,-18C322.22222222222223,-19.041666666666668,344.44444444444446,67.125,400,64C455.55555555555554,60.875,477.7777777777778,-26.958333333333336,533.3333333333334,-33C588.8888888888889,-39.041666666666664,611.1111111111112,27.708333333333336,666.6666666666667,35C722.2222222222223,42.291666666666664,744.4444444444445,-9.041666666666668,800,2C855.5555555555555,13.041666666666668,877.7777777777778,98.83333333333333,933.3333333333334,88C988.8888888888889,77.16666666666667,1011.1111111111112,-51.458333333333336,1066.6666666666667,-50C1122.2222222222222,-48.541666666666664,1144.4444444444443,91.25,1200,95C1255.5555555555557,98.75,1277.7777777777778,-28.041666666666668,1333.3333333333335,-32C1388.8888888888891,-35.958333333333336,1411.1111111111113,67.04166666666667,1466.6666666666667,76C1522.2222222222222,84.95833333333333,1544.4444444444443,15.166666666666668,1600,11C1655.5555555555557,6.833333333333333,1677.7777777777778,66.41666666666667,1733.3333333333335,56C1788.8888888888891,45.58333333333333,1811.111111111111,-49,1866.6666666666667,-39C1922.2222222222224,-29,1944.4444444444446,93.58333333333333,2000.0000000000002,104C2055.5555555555557,114.41666666666667,2077.777777777778,14.333333333333332,2133.3333333333335,11C2188.888888888889,7.666666666666667,2211.1111111111113,86.75,2266.666666666667,88C2322.2222222222226,89.25,2320.138888888889,-48,2400,17C2479.861111111111,82,3254.1666666666665,216.04166666666669,2650,400C2045.8333333333335,583.9583333333333,156.25,795.8333333333334,-500,900" transform="matrix(1,0,0,1,0,49)" opacity="0.05"></path><path d="M-10,10C19.86111111111111,22.291666666666668,75.69444444444446,74.83333333333333,133.33333333333334,69C190.97222222222223,63.166666666666664,211.11111111111114,-16.958333333333332,266.6666666666667,-18C322.22222222222223,-19.041666666666668,344.44444444444446,67.125,400,64C455.55555555555554,60.875,477.7777777777778,-26.958333333333336,533.3333333333334,-33C588.8888888888889,-39.041666666666664,611.1111111111112,27.708333333333336,666.6666666666667,35C722.2222222222223,42.291666666666664,744.4444444444445,-9.041666666666668,800,2C855.5555555555555,13.041666666666668,877.7777777777778,98.83333333333333,933.3333333333334,88C988.8888888888889,77.16666666666667,1011.1111111111112,-51.458333333333336,1066.6666666666667,-50C1122.2222222222222,-48.541666666666664,1144.4444444444443,91.25,1200,95C1255.5555555555557,98.75,1277.7777777777778,-28.041666666666668,1333.3333333333335,-32C1388.8888888888891,-35.958333333333336,1411.1111111111113,67.04166666666667,1466.6666666666667,76C1522.2222222222222,84.95833333333333,1544.4444444444443,15.166666666666668,1600,11C1655.5555555555557,6.833333333333333,1677.7777777777778,66.41666666666667,1733.3333333333335,56C1788.8888888888891,45.58333333333333,1811.111111111111,-49,1866.6666666666667,-39C1922.2222222222224,-29,1944.4444444444446,93.58333333333333,2000.0000000000002,104C2055.5555555555557,114.41666666666667,2077.777777777778,14.333333333333332,2133.3333333333335,11C2188.888888888889,7.666666666666667,2211.1111111111113,86.75,2266.666666666667,88C2322.2222222222226,89.25,2320.138888888889,-48,2400,17C2479.861111111111,82,3254.1666666666665,216.04166666666669,2650,400C2045.8333333333335,583.9583333333333,156.25,795.8333333333334,-500,900" transform="matrix(1,0,0,1,0,98)" opacity="0.24"></path><path d="M-10,10C19.86111111111111,22.291666666666668,75.69444444444446,74.83333333333333,133.33333333333334,69C190.97222222222223,63.166666666666664,211.11111111111114,-16.958333333333332,266.6666666666667,-18C322.22222222222223,-19.041666666666668,344.44444444444446,67.125,400,64C455.55555555555554,60.875,477.7777777777778,-26.958333333333336,533.3333333333334,-33C588.8888888888889,-39.041666666666664,611.1111111111112,27.708333333333336,666.6666666666667,35C722.2222222222223,42.291666666666664,744.4444444444445,-9.041666666666668,800,2C855.5555555555555,13.041666666666668,877.7777777777778,98.83333333333333,933.3333333333334,88C988.8888888888889,77.16666666666667,1011.1111111111112,-51.458333333333336,1066.6666666666667,-50C1122.2222222222222,-48.541666666666664,1144.4444444444443,91.25,1200,95C1255.5555555555557,98.75,1277.7777777777778,-28.041666666666668,1333.3333333333335,-32C1388.8888888888891,-35.958333333333336,1411.1111111111113,67.04166666666667,1466.6666666666667,76C1522.2222222222222,84.95833333333333,1544.4444444444443,15.166666666666668,1600,11C1655.5555555555557,6.833333333333333,1677.7777777777778,66.41666666666667,1733.3333333333335,56C1788.8888888888891,45.58333333333333,1811.111111111111,-49,1866.6666666666667,-39C1922.2222222222224,-29,1944.4444444444446,93.58333333333333,2000.0000000000002,104C2055.5555555555557,114.41666666666667,2077.777777777778,14.333333333333332,2133.3333333333335,11C2188.888888888889,7.666666666666667,2211.1111111111113,86.75,2266.666666666667,88C2322.2222222222226,89.25,2320.138888888889,-48,2400,17C2479.861111111111,82,3254.1666666666665,216.04166666666669,2650,400C2045.8333333333335,583.9583333333333,156.25,795.8333333333334,-500,900" transform="matrix(1,0,0,1,0,147)" opacity="0.43"></path><path d="M-10,10C19.86111111111111,22.291666666666668,75.69444444444446,74.83333333333333,133.33333333333334,69C190.97222222222223,63.166666666666664,211.11111111111114,-16.958333333333332,266.6666666666667,-18C322.22222222222223,-19.041666666666668,344.44444444444446,67.125,400,64C455.55555555555554,60.875,477.7777777777778,-26.958333333333336,533.3333333333334,-33C588.8888888888889,-39.041666666666664,611.1111111111112,27.708333333333336,666.6666666666667,35C722.2222222222223,42.291666666666664,744.4444444444445,-9.041666666666668,800,2C855.5555555555555,13.041666666666668,877.7777777777778,98.83333333333333,933.3333333333334,88C988.8888888888889,77.16666666666667,1011.1111111111112,-51.458333333333336,1066.6666666666667,-50C1122.2222222222222,-48.541666666666664,1144.4444444444443,91.25,1200,95C1255.5555555555557,98.75,1277.7777777777778,-28.041666666666668,1333.3333333333335,-32C1388.8888888888891,-35.958333333333336,1411.1111111111113,67.04166666666667,1466.6666666666667,76C1522.2222222222222,84.95833333333333,1544.4444444444443,15.166666666666668,1600,11C1655.5555555555557,6.833333333333333,1677.7777777777778,66.41666666666667,1733.3333333333335,56C1788.8888888888891,45.58333333333333,1811.111111111111,-49,1866.6666666666667,-39C1922.2222222222224,-29,1944.4444444444446,93.58333333333333,2000.0000000000002,104C2055.5555555555557,114.41666666666667,2077.777777777778,14.333333333333332,2133.3333333333335,11C2188.888888888889,7.666666666666667,2211.1111111111113,86.75,2266.666666666667,88C2322.2222222222226,89.25,2320.138888888889,-48,2400,17C2479.861111111111,82,3254.1666666666665,216.04166666666669,2650,400C2045.8333333333335,583.9583333333333,156.25,795.8333333333334,-500,900" transform="matrix(1,0,0,1,0,196)" opacity="0.62"></path><path d="M-10,10C19.86111111111111,22.291666666666668,75.69444444444446,74.83333333333333,133.33333333333334,69C190.97222222222223,63.166666666666664,211.11111111111114,-16.958333333333332,266.6666666666667,-18C322.22222222222223,-19.041666666666668,344.44444444444446,67.125,400,64C455.55555555555554,60.875,477.7777777777778,-26.958333333333336,533.3333333333334,-33C588.8888888888889,-39.041666666666664,611.1111111111112,27.708333333333336,666.6666666666667,35C722.2222222222223,42.291666666666664,744.4444444444445,-9.041666666666668,800,2C855.5555555555555,13.041666666666668,877.7777777777778,98.83333333333333,933.3333333333334,88C988.8888888888889,77.16666666666667,1011.1111111111112,-51.458333333333336,1066.6666666666667,-50C1122.2222222222222,-48.541666666666664,1144.4444444444443,91.25,1200,95C1255.5555555555557,98.75,1277.7777777777778,-28.041666666666668,1333.3333333333335,-32C1388.8888888888891,-35.958333333333336,1411.1111111111113,67.04166666666667,1466.6666666666667,76C1522.2222222222222,84.95833333333333,1544.4444444444443,15.166666666666668,1600,11C1655.5555555555557,6.833333333333333,1677.7777777777778,66.41666666666667,1733.3333333333335,56C1788.8888888888891,45.58333333333333,1811.111111111111,-49,1866.6666666666667,-39C1922.2222222222224,-29,1944.4444444444446,93.58333333333333,2000.0000000000002,104C2055.5555555555557,114.41666666666667,2077.777777777778,14.333333333333332,2133.3333333333335,11C2188.888888888889,7.666666666666667,2211.1111111111113,86.75,2266.666666666667,88C2322.2222222222226,89.25,2320.138888888889,-48,2400,17C2479.861111111111,82,3254.1666666666665,216.04166666666669,2650,400C2045.8333333333335,583.9583333333333,156.25,795.8333333333334,-500,900" transform="matrix(1,0,0,1,0,245)" opacity="0.81"></path><path d="M-10,10C19.86111111111111,22.291666666666668,75.69444444444446,74.83333333333333,133.33333333333334,69C190.97222222222223,63.166666666666664,211.11111111111114,-16.958333333333332,266.6666666666667,-18C322.22222222222223,-19.041666666666668,344.44444444444446,67.125,400,64C455.55555555555554,60.875,477.7777777777778,-26.958333333333336,533.3333333333334,-33C588.8888888888889,-39.041666666666664,611.1111111111112,27.708333333333336,666.6666666666667,35C722.2222222222223,42.291666666666664,744.4444444444445,-9.041666666666668,800,2C855.5555555555555,13.041666666666668,877.7777777777778,98.83333333333333,933.3333333333334,88C988.8888888888889,77.16666666666667,1011.1111111111112,-51.458333333333336,1066.6666666666667,-50C1122.2222222222222,-48.541666666666664,1144.4444444444443,91.25,1200,95C1255.5555555555557,98.75,1277.7777777777778,-28.041666666666668,1333.3333333333335,-32C1388.8888888888891,-35.958333333333336,1411.1111111111113,67.04166666666667,1466.6666666666667,76C1522.2222222222222,84.95833333333333,1544.4444444444443,15.166666666666668,1600,11C1655.5555555555557,6.833333333333333,1677.7777777777778,66.41666666666667,1733.3333333333335,56C1788.8888888888891,45.58333333333333,1811.111111111111,-49,1866.6666666666667,-39C1922.2222222222224,-29,1944.4444444444446,93.58333333333333,2000.0000000000002,104C2055.5555555555557,114.41666666666667,2077.777777777778,14.333333333333332,2133.3333333333335,11C2188.888888888889,7.666666666666667,2211.1111111111113,86.75,2266.666666666667,88C2322.2222222222226,89.25,2320.138888888889,-48,2400,17C2479.861111111111,82,3254.1666666666665,216.04166666666669,2650,400C2045.8333333333335,583.9583333333333,156.25,795.8333333333334,-500,900" transform="matrix(1,0,0,1,0,294)" opacity="1.00"></path></g></svg>